<svg xmlns="http://www.w3.org/2000/svg" width="30" height="30" viewBox="0 0 30 30">
  <g id="Group_83132" data-name="Group 83132" transform="translate(-2925.5 -694)">
    <g id="icon-globe-network" transform="translate(2925.5 694)">
      <path id="Path_362" data-name="Path 362" d="M1075.121,1562.53a15.2,15.2,0,0,1-4.069-5.569,17.9,17.9,0,0,1,2.269-.375,14.564,14.564,0,0,0,1.406,5.212C1074.859,1562.042,1074.99,1562.305,1075.121,1562.53Zm-4.444-6.581a15.008,15.008,0,0,1-.469-7.875l2.287.769a2.038,2.038,0,0,0,.281,1.144,1.991,1.991,0,0,0,.881.788,21.156,21.156,0,0,0-.413,4.744A17.119,17.119,0,0,0,1070.677,1555.949Zm-.206-8.943a15.016,15.016,0,0,1,5.756-8.119,13.414,13.414,0,0,0,1.181,1.369,1.506,1.506,0,0,0-.187.844,1.782,1.782,0,0,0,.262.825,22.415,22.415,0,0,0-2.738,5.1,2.016,2.016,0,0,0-1.05.131,1.937,1.937,0,0,0-.825.675l-2.4-.806Zm6.656-8.719a15.089,15.089,0,0,1,7.762-2.156,13.662,13.662,0,0,0-5.344,3.375,1.667,1.667,0,0,0-.675-.131,1.775,1.775,0,0,0-.694.15C1077.821,1539.13,1077.465,1538.718,1077.127,1538.286Zm17.456,1.406a14.984,14.984,0,0,1,4.331,6.113c-.375.094-.769.169-1.162.244a1.812,1.812,0,0,0-.525-.713,1.771,1.771,0,0,0-.787-.413,14.042,14.042,0,0,0-1.294-4.237A10.376,10.376,0,0,0,1094.584,1539.693Zm4.688,7.144a15.12,15.12,0,0,1-.413,9.769l-3.019-1.013a1.471,1.471,0,0,0-.469-.807l.019-.056a22.589,22.589,0,0,0,1.219-6.244,1.885,1.885,0,0,0,.788-.525,1.789,1.789,0,0,0,.45-.825C1098.315,1547.042,1098.8,1546.949,1099.271,1546.836Zm-.844,10.781a14.994,14.994,0,0,1-5.062,5.906,17.4,17.4,0,0,0-1.819-1.894,21.231,21.231,0,0,0,2.794-4.35,1.36,1.36,0,0,0,.713-.15,1.25,1.25,0,0,0,.563-.469Zm-6,6.488a14.9,14.9,0,0,1-6.844,2.025,14.409,14.409,0,0,0,5.25-3.694,19.154,19.154,0,0,1,1.613,1.669Zm-12.094-23.85a10.921,10.921,0,0,1,7.35-3.487h.225a20,20,0,0,0-4.763,6.525,22.29,22.29,0,0,1-2.7-1.762,1.554,1.554,0,0,0,.094-.656,1.82,1.82,0,0,0-.187-.619h-.019Zm-1.987,2.325a1.68,1.68,0,0,0,.75.056,1.546,1.546,0,0,0,.694-.244,26.171,26.171,0,0,0,2.869,1.875,49.56,49.56,0,0,0-2.437,6.037l-3.75-1.256v-.075a1.922,1.922,0,0,0-.731-1.519,21.543,21.543,0,0,1,2.606-4.875Zm-3.619,8.362a2.071,2.071,0,0,0,1.406-.862l3.75,1.256c-.375,1.181-.694,2.381-.975,3.581a1.39,1.39,0,0,0-.712.675,24.116,24.116,0,0,0-3.863-.15A20.6,20.6,0,0,1,1074.727,1550.943Zm-.337,5.569a21.32,21.32,0,0,1,3.769.169,1.445,1.445,0,0,0,.3.45,17.459,17.459,0,0,0-.094,7.387,8.451,8.451,0,0,1-2.681-3.206,13.841,13.841,0,0,1-1.294-4.8Zm17.006-11.194a18.443,18.443,0,0,0,.169-7.331,8.611,8.611,0,0,1,2.625,3.188,13,13,0,0,1,1.163,3.825,1.979,1.979,0,0,0-.731.506,2.114,2.114,0,0,0-.412.788,16.983,16.983,0,0,1-2.175-.15,1.281,1.281,0,0,0-.225-.487,1.417,1.417,0,0,0-.412-.338Zm-.488,2.325a1.275,1.275,0,0,0,.844-.431q1.293.141,2.531.169a1.855,1.855,0,0,0,1.238,1.125,21.459,21.459,0,0,1-1.181,5.944,1.471,1.471,0,0,0-.844.356l-4.294-1.463.225-.675a48.164,48.164,0,0,0,1.481-5.025Zm-2.1,6.712,4.219,1.425a1.416,1.416,0,0,0,.338,1.013,19.718,19.718,0,0,1-2.625,4.125,23.689,23.689,0,0,0-3.713-2.475C1087.646,1557.186,1088.246,1555.818,1088.809,1554.355Zm-2.269,5.044a21.917,21.917,0,0,1,3.469,2.325c-2.475,2.644-5.437,4.125-8.212,3.975C1083.259,1564.667,1084.946,1562.418,1086.54,1559.4Zm3.769-14.119a1.194,1.194,0,0,0-.563.487,24.28,24.28,0,0,1-5.644-1.969c2.1-4.05,4.294-6.694,5.587-6.713.038,0,.094.019.131.019a.881.881,0,0,1,.431.469l.019.037C1090.965,1538.98,1090.927,1541.811,1090.309,1545.28Zm-.412,1.969a51.96,51.96,0,0,1-1.725,5.756l-6.937-2.344.225-.656a53.455,53.455,0,0,1,2.156-5.25,25.916,25.916,0,0,0,6.037,2.1,1.069,1.069,0,0,0,.244.394Zm-2.1,6.769c-.544,1.387-1.125,2.719-1.725,3.937a24.831,24.831,0,0,0-5.269-1.875,1.23,1.23,0,0,0-.244-.675,1.326,1.326,0,0,0-.544-.469c.244-1.05.544-2.137.9-3.244Zm-2.212,4.894a29.5,29.5,0,0,1-2.044,3.338c-1.5,2.1-2.85,3.15-3.488,2.981a.882.882,0,0,1-.431-.469l-.019-.038c-.656-1.294-.675-3.919-.113-7.181a1.258,1.258,0,0,0,.525-.113,1.288,1.288,0,0,0,.45-.338A24.851,24.851,0,0,1,1085.584,1558.911Z" transform="translate(-1069.89 -1536.13)" fill="#fff"/>
    </g>
  </g>
</svg>
